<svg fill="none" height="19" viewBox="0 0 172 19" width="172" xmlns="http://www.w3.org/2000/svg"><path d="m106.321.340982c-1.947 0-9.11 0-9.11 0v18.269718h7.343c2.501 0 5.917-1.1799 5.917-5.0181 0-2.0382-1.029-3.1935-2.317-3.83898 2.16-.48603 4.036-1.76853 4.036-4.55916 0-3.88227-3.348-4.853478-5.869-4.853478zm-2.491 14.708018c-.871 0-2.454 0-2.495 0v-4.2063l2.495.0272c1.307 0 2.491.5963 2.491 2.0891 0 1.4937-1.184 2.09-2.491 2.09zm1.754-6.974c-1.655 0-4.249 0-4.249 0v-4.17406h4.249c1.655 0 2.403.9008 2.403 2.08745 0 1.18581-.748 2.08661-2.403 2.08661zm66.109 6.4744c0 1.8211-1.6 4.4226-5.797 4.4226-4.504 0-5.79-2.7753-5.917-4.2657l3.785-.6811c.261 1.3928 1.496 1.6015 2.133 1.6031.641.0009 1.619-.1679 1.619-1.0789 0-2.3394-7.746-.687-7.746-6.70851 0-1.03736.44-4.68808 6.127-4.68808 4.964 0 5.921 3.16554 6.105 4.65415l-3.773.69808c-.165-1.39107-.972-2.03825-2.332-2.03825-.99 0-1.957.41308-1.957 1.3741-.002 2.77111 7.753.84313 7.753 6.70851zm-171.693-8.8036c0-2.22995 1.3502-5.7458 7.85954-5.7458 6.88426 0 7.66346 5.58379 7.66346 5.58379l-3.8081 1.07045c-.3044-1.81179-1.78018-2.74906-3.85622-2.74906-2.43122 0-3.61286.70486-3.61286 1.91951 0 3.74401 11.13188.69723 11.13188 7.80861 0 3.0697-2.4553 5.3234-7.12342 5.3234-4.29742 0-6.18684-2.9407-6.76218-4.655l3.89752-1.0848c.48504 1.0187 1.28656 1.8347 3.0874 1.8347 1.66068 0 2.65308-.6633 2.65308-1.5328.0017-3.1774-11.1301-.2892-11.1301-7.773zm139.158-2.22995v1.48437s-1.616-1.84656-4.501-1.84656-6.408 2.28085-6.408 7.90964c0 5.6287 3.632 7.9096 6.607 7.9096 2.885 0 4.501-1.8466 4.501-1.8466v1.4844h3.979v-15.09485zm-3.318 11.52555c-2.089 0-3.413-1.4674-3.413-3.9781 0-2.51076 1.324-3.97817 3.413-3.97817 2.09 0 3.414 1.46741 3.414 3.97817 0 2.5107-1.324 3.9781-3.414 3.9781zm-84.6743-14.700418v4.659238s-1.6159-1.84656-4.5012-1.84656-6.4079 2.28085-6.4079 7.90964c0 5.6287 3.6318 7.9096 6.6065 7.9096 2.8853 0 4.5013-1.8466 4.5013-1.8466v1.4844h3.9792v-18.269718zm-3.317 14.700418c-2.0898 0-3.4134-1.4674-3.4134-3.9781 0-2.51076 1.3236-3.97817 3.4134-3.97817s3.4133 1.46741 3.4133 3.97817c0 2.5107-1.3244 3.9781-3.4133 3.9781zm-23.3447 3.2011c-.467.2825-1.8.5488-2.7744.5488-3.2688 0-5.0705-2.1349-5.0705-6.5821v-11.868218h4.2475v3.177408h3.3738v3.57183h-3.3738v5.24958c0 1.7117.9021 2.7118 2.3263 2.7118.6596 0 1.2711-.2816 1.2711-.2816zm102.717-7.6941c0-3.82291-2.964-7.38965-7.335-7.38965-4.977 0-7.597 3.31906-7.597 7.92065 0 4.5642 2.857 7.9206 7.789 7.9206 4.249 0 6.622-2.7126 7.246-5.1181l-3.948-1.1103c-.325 1.1205-1.359 2.2876-3.298 2.2876-1.32 0-2.41-.5861-3.036-1.6498zm-10.745.1323c0-2.48186 1.266-3.89923 3.41-3.89923 1.468 0 2.584.7159 3.098 2.0688zm-83.9276 4.3607c1.4233 0 2.3255-.9992 2.3255-2.7101v-8.81545h4.2475v8.81545c0 4.3446-2.1758 6.6416-6.5721 6.6416s-6.5721-2.297-6.5721-6.6416v-8.81545h4.2475v8.81545c-.0017 1.7109.9004 2.7101 2.3237 2.7101zm46.9638-7.95627c-1.4233 0-2.3255.9992-2.3255 2.71005v8.81552h-4.2475v-8.81552c0-4.34456 2.1758-6.64152 6.5721-6.64152s6.5721 2.29696 6.5721 6.64152v8.81552h-4.2475v-8.81552c.0008-1.71085-.9004-2.71005-2.3237-2.71005zm72.3008 0c-1.423 0-2.325.9992-2.325 2.71005v8.81552h-4.248v-8.81552c0-4.34456 2.176-6.64152 6.572-6.64152 4.397 0 6.572 2.29696 6.572 6.64152v8.81552h-4.247v-8.81552c.001-1.71085-.9-2.71005-2.324-2.71005zm-80.1862 3.46327c0-3.82291-2.9635-7.38965-7.3349-7.38965-4.9768 0-7.5964 3.31906-7.5964 7.92065 0 4.5642 2.8569 7.9206 7.789 7.9206 4.2484 0 6.6212-2.7126 7.2455-5.1181l-3.9482-1.1103c-.3243 1.1205-1.3588 2.2876-3.2973 2.2876-1.3201 0-2.4106-.5861-3.0366-1.6498zm-10.7457.1323c0-2.48186 1.2659-3.89923 3.4099-3.89923 1.468 0 2.5843.7159 3.0986 2.06965zm34.5789 7.5601c-.467.2825-1.8.5488-2.7744.5488-3.2688 0-5.0705-2.1349-5.0705-6.5821v-11.869063h4.2475v3.177413h3.3738v3.57183h-3.3738v5.24962c0 1.7117.9022 2.7117 2.3263 2.7117.6596 0 1.2711-.2816 1.2711-.2816z" fill="#6523e3"/></svg>